<?xml version="1.0" encoding="utf-8"?>
<!-- Generator: Adobe Illustrator 26.0.1, SVG Export Plug-In . SVG Version: 6.00 Build 0)  -->
<svg version="1.1" id="Layer_1" xmlns="http://www.w3.org/2000/svg" xmlns:xlink="http://www.w3.org/1999/xlink" x="0px" y="0px"
	 viewBox="0 0 20 20" style="enable-background:new 0 0 20 20;" xml:space="preserve">
<style type="text/css">
	.st0{fill:#474747;}
</style>
<path class="st0" d="M10.02,20c1.01-1.01,2.04-2.04,3.08-3.07c0.51-0.51,0.98-1.18,1.86-0.88c0.84,0.29,0.91,1.01,0.98,1.78
	c0.09,1,1.07,1.62,2.01,1.39c0.92-0.23,1.45-1.2,1.17-2.1c-0.22-0.7-0.82-1.12-1.7-1.12c-0.67,0-1.14-0.29-1.41-0.88
	c-0.28-0.61-0.01-1.09,0.43-1.52c0.26-0.24,0.5-0.5,0.75-0.75c0.93-0.93,1.86-1.86,2.81-2.8c-1.23-1.23-2.4-2.41-3.58-3.57
	c-0.42-0.41-0.68-0.87-0.44-1.46c0.26-0.63,0.75-0.92,1.45-0.93c0.92-0.01,1.56-0.5,1.71-1.28c0.19-0.94-0.43-1.83-1.37-1.97
	c-1-0.15-1.86,0.6-1.87,1.73c-0.01,0.7-0.28,1.21-0.91,1.46c-0.6,0.24-1.1-0.02-1.51-0.49c-0.14-0.16-0.3-0.3-0.45-0.45
	C12.02,2.07,11,1.06,9.95,0C8.68,1.27,7.54,2.53,6.29,3.69c-0.72,0.67-0.27,2.17,0.7,2.23c1.12,0.06,2.05,0.18,2.18,1.4
	c0.15,1.36-0.94,2.03-1.86,1.91C5.66,9.01,6.05,7.35,5.86,6.8C5.67,6.24,4.48,5.48,3.65,6.34C2.43,7.58,1.18,8.8,0,9.99
	C3.35,13.34,6.66,16.64,10.02,20z"/>
</svg>
