<?xml version="1.0" encoding="utf-8"?>
<!-- Generator: Adobe Illustrator 26.0.1, SVG Export Plug-In . SVG Version: 6.00 Build 0)  -->
<svg version="1.1" id="Layer_1" xmlns="http://www.w3.org/2000/svg" xmlns:xlink="http://www.w3.org/1999/xlink" x="0px" y="0px"
	 viewBox="0 0 20 18.7" style="enable-background:new 0 0 20 18.7;" xml:space="preserve">
<style type="text/css">
	.st0{fill:#474747;}
</style>
<path class="st0" d="M15.5,18.2c-0.1,0-0.3,0-0.4-0.1L10,14.4l-5.1,3.7c-0.1,0.1-0.2,0.1-0.4,0.1c-0.1,0-0.3,0-0.4-0.1
	C4.1,18,4,17.9,3.9,17.8c0-0.1,0-0.3,0-0.4l2-5.9L0.8,8C0.7,7.9,0.6,7.8,0.5,7.6c0-0.1,0-0.3,0-0.4c0-0.1,0.1-0.2,0.2-0.3
	C0.9,6.8,1,6.8,1.1,6.8h6.3l1.9-5.9c0-0.1,0.1-0.2,0.2-0.3C9.7,0.5,9.9,0.5,10,0.5c0.1,0,0.3,0,0.4,0.1c0.1,0.1,0.2,0.2,0.2,0.3
	l1.9,5.9h6.3c0.1,0,0.3,0,0.4,0.1c0.1,0.1,0.2,0.2,0.2,0.3c0,0.1,0,0.3,0,0.4c0,0.1-0.1,0.2-0.2,0.3l-5.1,3.5l2,5.9
	c0,0.1,0,0.2,0,0.3c0,0.1-0.1,0.2-0.1,0.3c-0.1,0.1-0.1,0.1-0.2,0.2C15.7,18.2,15.6,18.2,15.5,18.2z"/>
</svg>
